<?xml version="1.0" encoding="UTF-8" standalone="no"?>
<!DOCTYPE svg PUBLIC "-//W3C//DTD SVG 1.1//EN"
"http://www.w3.org/Graphics/SVG/1.1/DTD/svg11.dtd">


<!-- Page 1 -->
<svg x="0" y="0" width="480" height="737" viewBox="0 0 480 737" version="1.1" xmlns="http://www.w3.org/2000/svg" xmlns:xlink="http://www.w3.org/1999/xlink"
style="display: block;margin-left: auto;margin-right: auto;">
<defs>

<style type="text/css"><![CDATA[

.g0_1{
fill: none;
stroke: #000000;
stroke-width: 0.21327065;
stroke-linecap: square;
stroke-linejoin: miter;
}
.g1_1{
fill: #FFFFFF;
}
.g2_1{
fill: #DDDDDE;
}
.g3_1{
fill: #DEDEDF;
}
.g4_1{
fill: #FFECD9;
}
.g5_1{
fill: none;
stroke: #000000;
stroke-width: 1.1425214;
stroke-linecap: round;
stroke-linejoin: round;
}
.g6_1{
fill: #D9D9DC;
}
.g7_1{
fill: #DADADD;
}
.g8_1{
fill: #D2D4DA;
}
.g9_1{
fill: #D4D5DA;
}
.g10_1{
fill: #D6D7DB;
}
.g11_1{
fill: #D3D4DA;
}
.g12_1{
fill: #D8D9DC;
}
.g13_1{
fill: #D9DADC;
}
.g14_1{
fill: none;
stroke: #000000;
stroke-width: 1.1425214;
stroke-linecap: butt;
stroke-linejoin: round;
}
.g15_1{
fill: none;
stroke: #000000;
stroke-width: 1.1425214;
stroke-linecap: round;
stroke-linejoin: bevel;
}

.s1_1{
font-size: 11.44px;
font-family: Calibri-2CBold_d;
fill: #000000;
}
.s2_1{
font-size: 11.44px;
font-family: Calibri_2j;
fill: #000000;
}

]]></style>

</defs>
<path d="M0,0
L0,737
L480,737
L480,0 Z " 
fill="#FFFFFF" stroke="none" />
<path d="M6.3,5.6V715.8H465.6V5.6H6.3" class="g0_1" />
<path fill-rule="evenodd" d="M6.3,28.5h112l14.8,-16V5.6H6.3Z" class="g1_1" />
<path d="M6.3,28.5h112l14.8,-16V5.6H6.3V28.5" class="g0_1" />
<path fill-rule="evenodd" d="M12,22.8H116.3V9.1H12V22.8Z" class="g1_1" />
<text x="12" y="20" dx="0,-0.4,0.3,0.3,-0.3,0.1,-0.5,0.5,-0.5,-0.4,0.1,-0.5,-0.4,-0.5,-0.3,-0.3,0.5,-0.4,0.3,-0.4,-0.4,-0.2" class="s1_1">pkg Virtualni Pruvodce</text>
<path fill-rule="evenodd" d="M34.9,171.4h401V68.5H34.9V171.4Z" class="g2_1" />
<path fill-rule="evenodd" d="M34.9,68.5H154.8V45.6H34.9V68.5Z" class="g3_1" />
<path fill-rule="evenodd" d="M31.4,168H432.5V65.1H31.4V168Z" class="g4_1" />
<path d="M31.4,65.1H432.5V168H31.4V65.1" class="g5_1" />
<image x="30" y="41" width="122" height="26" xlink:href="1/shade/1.png" />
<path d="M31.4,42.2h120V65.1H31.4V42.2" class="g5_1" />
<text x="37" y="57" dx="0,-0.3,0.5,0,0,0,-0.4,-0.5,0.1,-0.5,-0.5,-0.4,-0.4,-0.3,-0.2,0.1,0.3,0" class="s1_1">Presentation Layer</text>
<path fill-rule="evenodd" d="M45.1,383H427.9V276.7H45.1V383Z" class="g6_1" />
<path fill-rule="evenodd" d="M45.1,276.7h120V253.8H45.1v22.9Z" class="g7_1" />
<path fill-rule="evenodd" d="M41.7,379.6H424.5V273.2H41.7V379.6Z" class="g4_1" />
<path d="M41.7,273.2H424.5V379.6H41.7V273.2" class="g5_1" />
<image x="41" y="249" width="123" height="25" xlink:href="1/shade/2.png" />
<path d="M41.7,250.4h120v22.8H41.7V250.4" class="g5_1" />
<text x="47" y="265" dx="0,0.5,-0.4,0,0,-0.5,-0.4,0,0,0,-0.3,-0.2,0.1,0.3,0" class="s1_1">Bussiness Layer</text>
<path fill-rule="evenodd" d="M48.6,694.1H443.9V592.3H48.6V694.1Z" class="g8_1" />
<path fill-rule="evenodd" d="M48.6,592.3H168.5V569.4H48.6v22.9Z" class="g9_1" />
<path fill-rule="evenodd" d="M45.1,690.7H440.5V588.9H45.1V690.7Z" class="g4_1" />
<path d="M45.1,588.9H440.5V690.7H45.1V588.9" class="g5_1" />
<image x="44" y="565" width="122" height="26" xlink:href="1/shade/3.png" />
<path d="M45.1,566h120v22.9H45.1V566" class="g5_1" />
<text x="50" y="581" dx="0,-0.3,0.1,-0.5,0.1,-0.4,0.1,0,0,-0.3,-0.2,0.1,0.3,0" class="s1_1">Database Layer</text>
<path fill-rule="evenodd" d="M281.1,436.8c1.6,0,2.8,1.3,2.8,2.8v43.5c0,1.6,-1.2,2.9,-2.8,2.9h-96c-1.6,0,-2.9,-1.3,-2.9,-2.9V439.6c0,-1.5,1.3,-2.8,2.9,-2.8h96Z" class="g10_1" />
<image x="178" y="432" width="104" height="51" xlink:href="1/shade/4.png" />
<path d="M277.7,433.3c1.5,0,2.8,1.3,2.8,2.9v43.5c0,1.5,-1.3,2.8,-2.9,2.8h.1h-96c-1.6,0,-2.9,-1.3,-2.9,-2.8V436.2c0,-1.6,1.3,-2.9,2.9,-2.9h96Z" class="g5_1" />
<text x="204" y="452" dx="0,-0.1,-0.3,-0.3,-0.4,0,-0.6,-0.1,0.3,-0.2,0" class="s2_1">«interface»</text>
<text x="222" y="467" dx="0,0,-0.4" class="s1_1">API</text>
<path fill-rule="evenodd" d="M62.3,145.1H199.4V104H62.3v41.1Z" class="g2_1" />
<path fill-rule="evenodd" d="M62.3,104H182.2V81.1H62.3V104Z" class="g2_1" />
<path fill-rule="evenodd" d="M58.9,141.7H196V100.5H58.9v41.2Z" class="g4_1" />
<path d="M58.9,100.5H196v41.2H58.9V100.5" class="g5_1" />
<image x="58" y="77" width="122" height="25" xlink:href="1/shade/5.png" />
<path d="M58.9,77.7H178.8v22.8H58.9V77.7" class="g5_1" />
<text x="64" y="92" dx="0,-0.4,0.6" class="s1_1">GUI</text>
<path fill-rule="evenodd" d="M235.9,141.7H373V107.4H235.9v34.3Z" class="g2_1" />
<path fill-rule="evenodd" d="M235.9,107.4h120V84.5h-120v22.9Z" class="g2_1" />
<path fill-rule="evenodd" d="M232.5,138.3H369.6V104H232.5v34.3Z" class="g4_1" />
<path d="M232.5,104H369.6v34.3H232.5V104" class="g5_1" />
<image x="231" y="80" width="123" height="25" xlink:href="1/shade/6.png" />
<path d="M232.5,81.1h120V104h-120V81.1" class="g5_1" />
<text x="238" y="96" dx="0,0.4,-0.4,-0.5,0,0.5,0.1,-0.2,-0.5,-0.5,0.3,-0.5,-0.5" class="s1_1">Interactivity</text>
<path fill-rule="evenodd" d="M104.6,668.9H253.1V634.6H104.6v34.3Z" class="g8_1" />
<path fill-rule="evenodd" d="M104.6,634.6H224.5V611.8H104.6v22.8Z" class="g11_1" />
<path fill-rule="evenodd" d="M101.1,665.5H249.7V631.2H101.1v34.3Z" class="g4_1" />
<path d="M101.1,631.2H249.7v34.3H101.1V631.2" class="g5_1" />
<image x="100" y="607" width="123" height="25" xlink:href="1/shade/7.png" />
<path d="M101.1,608.3h120v22.9h-120V608.3" class="g5_1" />
<text x="107" y="624" dx="0,-0.3,0.5,-0.3,-0.2,-0.4,0.5" class="s1_1">DB core</text>
<path fill-rule="evenodd" d="M74.8,347.6H223.4V321.3H74.8v26.3Z" class="g12_1" />
<path fill-rule="evenodd" d="M74.8,321.3h120V298.4H74.8v22.9Z" class="g13_1" />
<path fill-rule="evenodd" d="M71.4,344.1H219.9V317.8H71.4v26.3Z" class="g4_1" />
<path d="M71.4,317.8H219.9v26.3H71.4V317.8" class="g5_1" />
<image x="70" y="294" width="122" height="25" xlink:href="1/shade/8.png" />
<path d="M71.4,295h120v22.8H71.4V295" class="g5_1" />
<text x="77" y="310" dx="0,-0.3,-0.4,0,-0.5,-0.5,-0.5,-0.4,-0.4,-0.5,-0.4" class="s1_1">Positioning</text>
<path d="M229.1,400.2v-8m0,-4.6v-8m0,53.7v-8m0,-4.5v-8m0,-4.6v-8" class="g14_1" />
<path d="M229.1,433.3l-5.7,-17.1m5.7,17.1l5.7,-17.1" class="g15_1" />
<path d="M230.2,566v-8m0,-4.6v-8m0,-4.5v-8.1m0,-4.5v-8m0,-4.6v-8m0,-4.6v-8m0,-4.6v-6.8" class="g14_1" />
<path d="M230.2,566l-5.7,-17.1m5.7,17.1l5.7,-17.1" class="g15_1" />
<path d="M231.4,250.4v-8m0,-4.6v-8m0,-4.6v-8m0,-4.6v-8m0,-4.6v-8m0,-4.5v-8m0,-4.6V168" class="g14_1" />
<path d="M231.4,250.4l-5.7,-17.2m5.7,17.2l5.7,-17.2" class="g15_1" />
<path fill-rule="evenodd" d="M218.2,226.7h27.5V213H218.2v13.7Z" class="g1_1" />
<text x="218" y="224" dx="0,-0.1,-0.3,0.1,0" class="s2_1">«use»</text>


<!-- Any embedded fonts defined here -->
<style type="text/css" ><![CDATA[

@font-face {
	font-family: Calibri-2CBold_d;
	src: url("fonts/Calibri-2CBold_d.woff") format("woff");
}

@font-face {
	font-family: Calibri_2j;
	src: url("fonts/Calibri_2j.woff") format("woff");
}

]]></style>

</svg>
